<?xml version="1.0" encoding="iso-8859-1"?>
<!-- Generator: Adobe Illustrator 18.0.0, SVG Export Plug-In . SVG Version: 6.00 Build 0)  -->
<!DOCTYPE svg PUBLIC "-//W3C//DTD SVG 1.1//EN" "http://www.w3.org/Graphics/SVG/1.1/DTD/svg11.dtd">
<svg xmlns="http://www.w3.org/2000/svg" xmlns:xlink="http://www.w3.org/1999/xlink" version="1.1" id="Capa_1" x="0px" y="0px" viewBox="0 0 147.586 147.586" style="enable-background:new 0 0 147.586 147.586;" xml:space="preserve" width="512px" height="512px">
<g>
	<path d="M48.712,94.208c-2.929,2.929-2.929,7.678,0,10.606c2.93,2.929,7.678,2.929,10.607,0   c7.98-7.98,20.967-7.98,28.947,0c1.465,1.464,3.385,2.197,5.304,2.197s3.839-0.732,5.304-2.197c2.929-2.929,2.929-7.678,0-10.606   C85.044,80.378,62.542,80.378,48.712,94.208z" fill="#D80027"/>
	<path d="M26.73,72.225c-2.929,2.929-2.929,7.678,0,10.606s7.677,2.93,10.607,0   c20.102-20.102,52.811-20.102,72.912,0c1.465,1.464,3.385,2.197,5.304,2.197s3.839-0.732,5.304-2.197   c2.929-2.929,2.929-7.678,0-10.606C94.906,46.275,52.681,46.275,26.73,72.225z" fill="#D80027"/>
	<path d="M145.39,47.692c-39.479-39.479-103.715-39.479-143.193,0c-2.929,2.929-2.929,7.678,0,10.606   c2.93,2.929,7.678,2.929,10.607,0c16.29-16.291,37.95-25.262,60.989-25.262s44.699,8.972,60.989,25.262   c1.465,1.464,3.385,2.197,5.304,2.197s3.839-0.732,5.304-2.197C148.319,55.37,148.319,50.621,145.39,47.692z" fill="#D80027"/>
	<circle cx="73.793" cy="121.272" r="8.231" fill="#D80027"/>
</g>
<g>
</g>
<g>
</g>
<g>
</g>
<g>
</g>
<g>
</g>
<g>
</g>
<g>
</g>
<g>
</g>
<g>
</g>
<g>
</g>
<g>
</g>
<g>
</g>
<g>
</g>
<g>
</g>
<g>
</g>
</svg>
